Coordinates
version=1
nRows=14
nColumns=24
inDegrees=yes

Units are S.I. units (second, meters, Newtons, ...)
Angles are in degrees.

endheader
time	pelvis_tilt	pelvis_list	pelvis_rotation	pelvis_tx	pelvis_ty	pelvis_tz	hip_flexion_r	hip_adduction_r	hip_rotation_r	knee_angle_r	ankle_angle_r	subtalar_angle_r	mtp_angle_r	hip_flexion_l	hip_adduction_l	hip_rotation_l	knee_angle_l	ankle_angle_l	subtalar_angle_l	mtp_angle_l	lumbar_extension	lumbar_bending	lumbar_rotation
      1.02916667	     -3.82116813	     -2.18195275	      0.18849327	     -0.12165299	      1.01637962	      0.32081681	     -8.61821078	      8.34256502	     -0.30150280	     -7.77008997	     12.83556942	     -2.52743215	      0.63172577	     21.65969874	     -1.63476134	     -2.54282450	      6.93710028	      4.45437607	     -1.22869351	     -2.45565035	     -1.66138263	      0.51993974	      5.70533083
      1.03333333	     -3.79412684	     -2.08164105	      0.16682355	     -0.11625707	      1.01567145	      0.32041520	     -8.77495507	      8.20011980	     -0.37091368	     -8.18946411	     13.09323430	     -2.37441424	      0.66272942	     21.72591640	     -1.40389282	     -2.45035959	      6.48730809	      4.58435643	     -1.02407153	     -2.31656619	     -1.69717413	      0.40770511	      5.73129093
      1.03750000	     -3.79282388	     -1.99778216	      0.15124490	     -0.11085288	      1.01494177	      0.32002395	     -8.88571494	      8.08112863	     -0.42008131	     -8.64210175	     13.30594833	     -2.28422739	      0.69691113	     21.83303759	     -1.19230949	     -2.34372067	      5.95620754	      4.68363932	     -0.85518140	     -2.15477362	     -1.68035274	      0.30522386	      5.76160144
      1.04166667	     -3.78343467	     -1.89201618	      0.13643735	     -0.10542856	      1.01424533	      0.31961788	     -8.97945210	      7.93612494	     -0.49255789	     -9.14953223	     13.51861917	     -2.16876846	      0.74921667	     21.93818311	     -0.95908500	     -2.28141450	      5.35854518	      4.75267991	     -0.63551448	     -1.90531879	     -1.69675561	      0.20527779	      5.79374825
      1.04583333	     -3.73614139	     -1.78042890	      0.14137173	     -0.09994891	      1.01361395	      0.31924621	     -9.13014505	      7.80280679	     -0.48179301	     -9.62398074	     13.67146373	     -2.21323374	      0.78135056	     21.98557469	     -0.72127629	     -2.12446845	      4.75045431	      4.75470050	     -0.56072262	     -1.76377944	     -1.72789697	      0.04394441	      5.81153800
      1.05000000	     -3.67954424	     -1.66938086	      0.13519633	     -0.09446498	      1.01304039	      0.31887845	     -9.25650787	      7.66751075	     -0.48370076	    -10.16281282	     13.74907363	     -2.31397843	      0.79618065	     22.02035464	     -0.49043092	     -1.98564444	      4.11042744	      4.67465935	     -0.53682720	     -1.70608439	     -1.80035686	     -0.05537229	      5.83257296
      1.05416667	     -3.64948794	     -1.54226311	      0.13150362	     -0.08895138	      1.01242804	      0.31848143	     -9.30433072	      7.50022233	     -0.61377174	    -10.81766550	     13.99040645	     -2.06691752	      0.90851251	     22.11676383	     -0.24582195	     -1.99464629	      3.36844037	      4.65119837	     -0.25679316	     -1.27876817	     -1.81091581	     -0.21518776	      5.87496534
      1.05833333	     -3.56871375	     -1.41641467	      0.14370156	     -0.08339736	      1.01192275	      0.31812906	     -9.43136366	      7.36112636	     -0.59213758	    -11.40937999	     14.02383453	     -2.23137400	      0.92808989	     22.11746281	     -0.00412210	     -1.82362103	      2.68662614	      4.49746424	     -0.27698902	     -1.20919063	     -1.89162642	     -0.36833459	      5.88805319
      1.06250000	     -3.56159619	     -1.29458029	      0.13317994	     -0.07783118	      1.01132804	      0.31776428	     -9.40596832	      7.20238784	     -0.70169950	    -12.16148919	     14.19293006	     -2.03923989	      1.22926533	     22.19573398	      0.22624102	     -1.65984173	      1.99214350	      4.20381656	     -0.42345958	     -0.24045660	     -1.86199347	     -0.51566428	      5.93201216
      1.06666667	     -3.46093411	     -1.17204986	      0.15447967	     -0.07221467	      1.01091140	      0.31743397	     -9.53435196	      7.08209716	     -0.60064663	    -12.78521200	     14.07788440	     -2.40208637	      2.38574176	     22.15969254	      0.45632019	     -1.46216648	      1.31685162	      3.81886768	     -0.55050414	      3.02343907	     -1.95530823	     -0.68579379	      5.93318736
      1.07083333	     -3.36630814	     -1.03859534	      0.16286016	     -0.06659769	      1.01051662	      0.31707787	     -9.59261153	      6.93138748	     -0.61768161	    -13.54095016	     14.01105529	     -2.53143858	      2.39388001	     22.13760507	      0.69230072	     -1.31964107	      0.60002684	      3.58993427	     -0.59296725	      3.03163097	     -2.05870373	     -0.84508043	      5.94713917
      1.07500000	     -3.29269806	     -0.88289312	      0.16271659	     -0.06091785	      1.01013390	      0.31674492	     -9.59370175	      6.74906949	     -0.67947919	    -14.37549735	     14.00309585	     -2.52911124	      2.45480303	     22.09834775	      0.94585369	     -1.09449175	     -0.04265544	      3.14289824	     -0.84993077	      3.09114317	     -2.09446013	     -1.08896528	      5.96616619
      1.07916667	     -3.21900043	     -0.76718632	      0.16831607	     -0.05528934	      1.00977795	      0.31636906	     -9.55284367	      6.60496377	     -0.77056633	    -15.27973019	     13.94085732	     -2.52661391	      2.60194117	     22.05601512	      1.16313995	     -0.75038791	     -0.67736200	      2.64568868	     -1.36918377	      3.23264298	     -2.15165943	     -1.20854835	      5.99351674
      1.08333333	     -3.15391517	     -0.61552269	      0.17206460	     -0.04958687	      1.00945798	      0.31602644	     -9.49128068	      6.42735239	     -0.82356912	    -16.20417249	     13.77262949	     -2.63296408	      2.70432313	     22.01989795	      1.40493082	     -0.52837985	     -1.31854214	      2.16834555	     -1.62224656	      3.31918702	     -2.18713322	     -1.43166716	      5.99370680
